<svg width="24" height="24" viewBox="0 0 24 24" fill="none" xmlns="http://www.w3.org/2000/svg">
<g clip-path="url(#clip0_178_908)">
<path d="M23.9877 12.2245C23.9877 11.2413 23.9061 10.5238 23.7293 9.77966H12.239V14.2176H18.9836C18.8477 15.3205 18.1134 16.9815 16.4816 18.0976L16.4587 18.2462L20.0917 20.9964L20.3434 21.0209C22.655 18.9347 23.9877 15.8653 23.9877 12.2245Z" fill="#4285F4"/>
<path d="M12.239 23.9176C15.5433 23.9176 18.3172 22.8545 20.3434 21.0209L16.4815 18.0976C15.4481 18.8018 14.0611 19.2934 12.239 19.2934C9.00268 19.2934 6.2559 17.2074 5.27675 14.324L5.13323 14.3359L1.35556 17.1927L1.30615 17.3269C3.31864 21.2334 7.45245 23.9176 12.239 23.9176Z" fill="#34A853"/>
<path d="M5.27683 14.3239C5.01848 13.5798 4.86896 12.7825 4.86896 11.9587C4.86896 11.1349 5.01848 10.3376 5.26324 9.59354L5.2564 9.43507L1.43138 6.53235L1.30623 6.59052C0.47679 8.21162 0.000854492 10.032 0.000854492 11.9587C0.000854492 13.8854 0.47679 15.7058 1.30623 17.3269L5.27683 14.3239Z" fill="#FBBC05"/>
<path d="M12.239 4.62403C14.537 4.62403 16.0872 5.59402 16.9711 6.40461L20.425 3.10928C18.3037 1.1826 15.5433 0 12.239 0C7.45245 0 3.31864 2.68406 1.30615 6.59056L5.26316 9.59359C6.2559 6.7102 9.00268 4.62403 12.239 4.62403Z" fill="#EB4335"/>
</g>
<defs>
<clipPath id="clip0_178_908">
<rect width="24" height="24" fill="white"/>
</clipPath>
</defs>
</svg>
