<svg width="470" height="405" viewBox="0 0 470 405" fill="none" xmlns="http://www.w3.org/2000/svg">
<path d="M337.808 87.4972C303.385 57.4172 256.789 87.4972 211.519 150.797C166.248 214.096 144.722 187.457 106.239 215.356C67.7552 243.255 57.4622 357.54 193.048 346.43C328.633 335.319 427.794 166.025 337.808 87.4972Z" fill="#F0F0F0"/>
<path d="M379.61 389.942C379.61 390.074 314.336 390.187 233.844 390.187C153.352 390.187 88.0498 390.074 88.0498 389.942C88.0498 389.811 153.314 389.698 233.844 389.698C314.374 389.698 379.61 389.82 379.61 389.942Z" fill="#263238"/>
<path d="M349.248 20.0991L344.407 21.8287L342.329 15.5025C338.513 3.83714 326.349 -2.35746 315.173 1.58114C303.996 5.51974 298.046 18.3131 301.862 29.9785L303.94 36.3047L299.08 38.0437C297.227 38.7625 295.722 40.1678 294.878 41.9674C294.034 43.7671 293.916 45.8227 294.549 47.7069L308.019 88.8695C308.299 89.8023 308.763 90.6694 309.384 91.4192C310.006 92.169 310.771 92.7863 311.636 93.2344C312.501 93.6825 313.446 93.9522 314.417 94.0275C315.388 94.1028 316.364 93.9823 317.288 93.6729L367.455 75.7283C369.333 75.0108 370.859 73.5931 371.713 71.7734C372.567 69.9537 372.682 67.8738 372.033 65.9711L358.554 24.8085C358.267 23.8784 357.795 23.0155 357.168 22.2715C356.54 21.5274 355.769 20.9174 354.901 20.4779C354.032 20.0384 353.084 19.7783 352.113 19.7132C351.141 19.6482 350.167 19.7794 349.248 20.0991ZM311.008 26.6791C309.979 23.646 310.164 20.3322 311.524 17.4322C312.884 14.5322 315.313 12.2709 318.303 11.1221C319.779 10.617 321.342 10.4144 322.899 10.5265C324.455 10.6386 325.973 11.0631 327.361 11.7746C328.75 12.486 329.981 13.47 330.982 14.6676C331.982 15.8653 332.731 17.2522 333.183 18.7455L335.251 25.0717L313.076 33.0053L311.008 26.6791ZM339.208 63.2075L342.649 73.7167C342.712 73.9275 342.692 74.1544 342.592 74.3505C342.492 74.5465 342.321 74.6966 342.113 74.7695L337.291 76.4897C337.099 76.5429 336.894 76.5198 336.719 76.4252C336.543 76.3306 336.412 76.1718 336.351 75.9821L332.882 65.5199C330.97 65.4157 329.135 64.7297 327.623 63.5538C326.111 62.3778 324.994 60.768 324.422 58.9399C323.605 56.5231 323.754 53.8838 324.838 51.5744C325.923 49.2651 327.859 47.4649 330.241 46.5507C331.417 46.1489 332.662 45.988 333.901 46.0775C335.141 46.167 336.35 46.5052 337.456 47.0719C338.562 47.6385 339.543 48.4221 340.34 49.3758C341.137 50.3295 341.733 51.4339 342.094 52.6231C342.699 54.4801 342.749 56.4732 342.238 58.3582C341.727 60.2432 340.678 61.9383 339.218 63.2357L339.208 63.2075Z" fill="#646FD4"/>
<path d="M344.19 21.716C344.19 21.8476 335.213 25.2222 324.046 29.236C312.879 33.2498 303.77 36.474 303.723 36.38C303.676 36.286 312.7 32.8832 323.877 28.86C335.054 24.8368 344.143 21.5938 344.19 21.716Z" fill="#263238"/>
<path d="M354.85 23.4456C354.892 23.5271 354.926 23.612 354.953 23.6994C355.029 23.8874 355.113 24.1318 355.226 24.4326C355.47 25.1188 355.809 26.0682 356.232 27.2526L359.841 37.7618C361.345 42.2174 363.141 47.5002 365.134 53.3658C366.074 56.308 367.183 59.3724 368.217 62.5966C368.77 64.258 369.009 66.0081 368.922 67.7571C368.842 68.6668 368.583 69.5517 368.16 70.361C367.709 71.1675 367.105 71.8793 366.384 72.4571C364.932 73.5173 363.32 74.3391 361.609 74.8918L356.768 76.6308L347.603 79.9114L332.083 85.4385L321.602 89.1233L318.782 90.0633L318.03 90.3077C317.95 90.3435 317.864 90.3657 317.776 90.3736C317.776 90.3736 317.852 90.3736 318.011 90.2608L318.745 89.9693L321.565 88.9072L331.989 85.0719L347.48 79.432L356.627 76.1231L361.468 74.3747C363.13 73.8446 364.695 73.0477 366.102 72.0154C366.773 71.4791 367.335 70.8185 367.756 70.0695C368.154 69.3211 368.394 68.4988 368.461 67.6537C368.548 65.9685 368.318 64.282 367.785 62.6812C366.769 59.4852 365.698 56.3926 364.729 53.4504C362.774 47.5754 360.969 42.2738 359.541 37.8182C358.112 33.3626 356.909 29.7812 356.081 27.262C355.687 26.0306 355.386 25.0718 355.141 24.3762L354.916 23.6242C354.888 23.5672 354.865 23.5073 354.85 23.4456Z" fill="#263238"/>
<path d="M328.38 10.4829C328.38 10.4829 327.881 10.2385 326.96 9.86249C325.647 9.35796 324.258 9.07831 322.852 9.03528C320.768 8.96382 318.694 9.3555 316.78 10.1821C314.452 11.2114 312.461 12.8762 311.037 14.9855C309.602 17.0888 308.833 19.5743 308.828 22.1201C308.847 24.2066 309.164 26.2798 309.768 28.2771C310.256 29.9879 310.764 31.3509 311.102 32.3003C311.302 32.7825 311.465 33.279 311.591 33.7855C311.324 33.3346 311.101 32.8593 310.924 32.3661C310.538 31.4261 309.984 30.0913 309.439 28.3711C308.769 26.3528 308.405 24.2459 308.358 22.1201C308.333 19.4781 309.12 16.8923 310.614 14.7129C312.088 12.5265 314.16 10.8102 316.583 9.76848C318.557 8.93737 320.695 8.57074 322.834 8.69688C324.27 8.77009 325.681 9.10456 326.998 9.68388C327.35 9.84628 327.689 10.0348 328.013 10.2479C328.147 10.3066 328.27 10.3859 328.38 10.4829Z" fill="#263238"/>
<path d="M328.812 47.2651C328.962 47.1742 329.119 47.0956 329.282 47.0301C329.753 46.8178 330.24 46.6449 330.739 46.5131C331.531 46.2793 332.349 46.1405 333.174 46.0995C334.296 46.0392 335.419 46.2088 336.473 46.5977C338.88 47.4437 341.088 49.8971 342.179 53.1777C342.702 54.9383 342.702 56.8128 342.179 58.5733C341.599 60.4841 340.56 62.2237 339.152 63.6399L339.208 63.3861C340.459 66.8171 341.822 70.5395 343.232 74.4217L343.316 74.6567L343.081 74.7413L340.929 75.4557L336.229 77.0255L335.994 77.1007L335.918 76.8657C334.631 72.9741 333.221 69.3457 332.158 65.7831L332.365 65.9429C330.528 65.7903 328.775 65.1005 327.327 63.9595C326.016 62.9501 324.942 61.667 324.178 60.1995C323.489 58.8982 323.146 57.4416 323.182 55.9695C323.225 54.465 323.601 52.9887 324.282 51.6464C324.962 50.3041 325.932 49.1289 327.12 48.2051C327.609 47.8081 328.158 47.4908 328.746 47.2651C328.215 47.5802 327.701 47.9222 327.205 48.2897C325.899 49.3941 324.899 50.815 324.3 52.4163C323.786 53.6239 323.545 54.9304 323.596 56.2419C323.646 57.5535 323.986 58.8376 324.592 60.0021C325.342 61.4138 326.391 62.6454 327.665 63.6117C329.047 64.6963 330.718 65.3501 332.469 65.4917H332.628L332.676 65.6327C333.71 69.1295 335.129 72.7861 336.436 76.6965L336.125 76.5461L340.825 74.9763L342.968 74.2525L342.818 74.5721C341.418 70.6899 340.064 66.9581 338.823 63.5271V63.3861L338.936 63.2733C340.302 61.9159 341.321 60.2488 341.906 58.4135C342.405 56.7295 342.405 54.937 341.906 53.2529C340.882 50.0945 338.767 47.6975 336.473 46.8515C335.458 46.4601 334.374 46.2778 333.287 46.3157C332.475 46.3343 331.667 46.4447 330.88 46.6447C329.48 46.9925 328.821 47.3121 328.812 47.2651Z" fill="#263238"/>
<path d="M299.757 318.681L205.86 318.248C200.438 318.219 195.249 316.038 191.433 312.185C187.617 308.332 185.486 303.123 185.509 297.7L186.505 62.3146C186.516 59.6282 187.057 56.9702 188.096 54.4927C189.135 52.0152 190.652 49.7668 192.56 47.8759C194.468 45.985 196.731 44.4888 199.218 43.4727C201.705 42.4566 204.367 41.9406 207.054 41.9542L300.941 42.3866C306.363 42.414 311.553 44.5924 315.371 48.4434C319.188 52.2944 321.321 57.5032 321.301 62.9256L320.305 298.302C320.294 300.989 319.754 303.648 318.715 306.126C317.676 308.605 316.16 310.855 314.251 312.747C312.343 314.639 310.081 316.137 307.594 317.156C305.107 318.174 302.444 318.692 299.757 318.681Z" fill="#455A64"/>
<path d="M300.8 50.48H282.602C282.008 50.491 281.422 50.6189 280.878 50.8563C280.333 51.0938 279.841 51.4362 279.429 51.8639C279.017 52.2916 278.693 52.7963 278.476 53.3492C278.259 53.902 278.154 54.4922 278.165 55.086V58.3854C278.176 58.9787 278.07 59.5684 277.853 60.1208C277.636 60.6731 277.312 61.1772 276.9 61.6042C276.488 62.0311 275.995 62.3726 275.451 62.609C274.907 62.8455 274.321 62.9722 273.728 62.982L238.252 62.8222C237.052 62.7902 235.914 62.2832 235.087 61.4126C234.261 60.5419 233.813 59.3788 233.844 58.1786V54.8792C233.874 53.6806 233.428 52.5189 232.604 51.6485C231.779 50.7781 230.643 50.27 229.445 50.2356H223.043L207.11 50.1604C203.32 50.1378 199.676 51.6179 196.975 54.2764C194.274 56.935 192.737 60.5554 192.7 64.345L191.76 294.1C191.751 295.98 192.113 297.843 192.824 299.583C193.536 301.324 194.583 302.907 195.906 304.242C197.23 305.578 198.803 306.639 200.537 307.367C202.27 308.094 204.13 308.473 206.01 308.482L299.71 308.914C301.591 308.923 303.455 308.561 305.197 307.849C306.938 307.137 308.522 306.089 309.859 304.765C311.195 303.441 312.257 301.866 312.985 300.132C313.713 298.397 314.092 296.536 314.101 294.654L315.041 64.8996C315.063 61.0993 313.576 57.4456 310.906 54.7417C308.235 52.0377 304.6 50.5049 300.8 50.48Z" fill="white"/>
<path d="M288.195 278.261L218.522 277.96C217.798 277.96 217.215 277.17 217.225 276.212L217.3 257.985C217.3 257.045 217.892 256.237 218.616 256.237L288.289 256.556C288.69 256.626 289.049 256.847 289.29 257.175C289.532 257.502 289.638 257.91 289.586 258.314L289.52 276.522C289.52 277.49 288.918 278.27 288.195 278.261Z" fill="#646FD4"/>
<path d="M241.385 265.217C241.35 264.924 241.21 264.697 240.963 264.535C240.717 264.374 240.415 264.293 240.056 264.293C239.795 264.293 239.566 264.335 239.369 264.42C239.175 264.504 239.023 264.621 238.913 264.769C238.805 264.917 238.751 265.086 238.751 265.274C238.751 265.432 238.789 265.568 238.864 265.682C238.941 265.793 239.039 265.887 239.158 265.962C239.278 266.035 239.403 266.096 239.534 266.144C239.665 266.19 239.785 266.227 239.895 266.256L240.495 266.418C240.649 266.458 240.821 266.514 241.009 266.585C241.2 266.657 241.382 266.754 241.555 266.877C241.73 266.998 241.875 267.154 241.988 267.345C242.102 267.535 242.159 267.769 242.159 268.047C242.159 268.366 242.075 268.655 241.907 268.913C241.742 269.171 241.499 269.376 241.18 269.528C240.862 269.68 240.476 269.756 240.022 269.756C239.598 269.756 239.232 269.688 238.922 269.551C238.614 269.414 238.371 269.224 238.194 268.979C238.019 268.735 237.92 268.451 237.897 268.127H238.636C238.655 268.351 238.73 268.535 238.861 268.682C238.994 268.826 239.161 268.934 239.363 269.005C239.567 269.074 239.787 269.109 240.022 269.109C240.295 269.109 240.541 269.065 240.758 268.976C240.976 268.886 241.148 268.761 241.275 268.601C241.402 268.439 241.466 268.251 241.466 268.035C241.466 267.839 241.411 267.679 241.301 267.556C241.191 267.432 241.047 267.332 240.868 267.255C240.689 267.178 240.495 267.111 240.287 267.053L239.56 266.845C239.098 266.712 238.732 266.523 238.463 266.276C238.193 266.03 238.058 265.708 238.058 265.309C238.058 264.978 238.148 264.689 238.327 264.443C238.508 264.195 238.75 264.002 239.054 263.865C239.361 263.727 239.702 263.657 240.08 263.657C240.461 263.657 240.8 263.726 241.096 263.862C241.392 263.997 241.627 264.182 241.801 264.417C241.976 264.652 242.068 264.918 242.078 265.217H241.385ZM244.052 263.738V269.652H243.336V263.738H244.052ZM250.177 263.738V269.652H249.484L246.262 265.009H246.204V269.652H245.488V263.738H246.181L249.415 268.393H249.473V263.738H250.177ZM255.653 265.586C255.589 265.392 255.505 265.218 255.402 265.064C255.299 264.908 255.177 264.775 255.035 264.665C254.894 264.555 254.734 264.472 254.555 264.414C254.376 264.356 254.18 264.327 253.966 264.327C253.616 264.327 253.297 264.418 253.011 264.599C252.724 264.78 252.496 265.046 252.326 265.399C252.157 265.751 252.072 266.183 252.072 266.695C252.072 267.207 252.158 267.639 252.329 267.992C252.501 268.344 252.732 268.611 253.025 268.791C253.318 268.972 253.647 269.063 254.013 269.063C254.351 269.063 254.65 268.991 254.908 268.846C255.168 268.7 255.37 268.494 255.514 268.228C255.66 267.961 255.734 267.646 255.734 267.284L255.953 267.33H254.174V266.695H256.427V267.33C256.427 267.817 256.323 268.241 256.115 268.601C255.909 268.961 255.624 269.24 255.26 269.438C254.898 269.635 254.482 269.733 254.013 269.733C253.489 269.733 253.029 269.61 252.632 269.363C252.238 269.117 251.93 268.766 251.708 268.312C251.489 267.858 251.379 267.319 251.379 266.695C251.379 266.227 251.442 265.807 251.567 265.433C251.694 265.058 251.873 264.738 252.104 264.475C252.335 264.211 252.608 264.009 252.924 263.868C253.24 263.728 253.587 263.657 253.966 263.657C254.278 263.657 254.569 263.705 254.838 263.799C255.11 263.891 255.351 264.023 255.563 264.195C255.777 264.364 255.955 264.567 256.097 264.804C256.24 265.039 256.338 265.3 256.392 265.586H255.653ZM242.032 273.738H242.748V277.654C242.748 278.058 242.652 278.419 242.462 278.737C242.273 279.052 242.006 279.302 241.662 279.485C241.317 279.665 240.913 279.756 240.449 279.756C239.985 279.756 239.581 279.665 239.236 279.485C238.892 279.302 238.624 279.052 238.434 278.737C238.245 278.419 238.151 278.058 238.151 277.654V273.738H238.867V277.596C238.867 277.885 238.93 278.142 239.057 278.367C239.184 278.59 239.365 278.766 239.6 278.895C239.837 279.022 240.12 279.086 240.449 279.086C240.778 279.086 241.061 279.022 241.298 278.895C241.535 278.766 241.716 278.59 241.841 278.367C241.968 278.142 242.032 277.885 242.032 277.596V273.738ZM244.178 279.652V273.738H246.176C246.64 273.738 247.019 273.822 247.314 273.99C247.61 274.155 247.829 274.379 247.972 274.662C248.114 274.945 248.186 275.261 248.186 275.609C248.186 275.958 248.114 276.275 247.972 276.559C247.831 276.844 247.614 277.071 247.319 277.241C247.025 277.408 246.647 277.492 246.187 277.492H244.755V276.857H246.164C246.482 276.857 246.737 276.802 246.929 276.692C247.122 276.583 247.262 276.434 247.348 276.248C247.437 276.059 247.481 275.846 247.481 275.609C247.481 275.373 247.437 275.161 247.348 274.974C247.262 274.787 247.121 274.641 246.927 274.535C246.732 274.427 246.474 274.374 246.153 274.374H244.894V279.652H244.178Z" fill="#E8E8E3"/>
<path d="M232.419 118.019L208.242 117.91L208.222 122.346L232.399 122.456L232.419 118.019Z" fill="#646FD4"/>
<path opacity="0.1" d="M232.419 118.019L208.242 117.91L208.222 122.346L232.399 122.456L232.419 118.019Z" fill="black"/>
<path d="M303.291 145.26C303.481 145.241 303.667 145.197 303.846 145.129C304.106 145.027 304.332 144.854 304.498 144.629C304.665 144.405 304.764 144.138 304.786 143.86C304.786 142.365 304.786 140.184 304.786 137.383C304.786 135.982 304.786 134.413 304.786 132.683C304.786 132.26 304.786 131.818 304.786 131.376C304.847 130.948 304.754 130.511 304.522 130.145C304.393 129.969 304.225 129.826 304.031 129.727C303.836 129.627 303.622 129.574 303.404 129.572H301.937H288.354L209.733 129.28C209.532 129.277 209.332 129.322 209.152 129.412C208.972 129.502 208.817 129.634 208.699 129.797C208.472 130.165 208.385 130.602 208.454 131.029C208.454 131.969 208.454 132.909 208.454 133.849C208.454 135.729 208.454 137.609 208.454 139.489C208.454 140.429 208.454 141.369 208.454 142.309C208.415 142.746 208.415 143.187 208.454 143.625C208.504 143.812 208.596 143.986 208.723 144.133C208.85 144.279 209.009 144.395 209.188 144.471C209.373 144.544 209.571 144.58 209.77 144.574H214.555L235.432 144.687L270.776 144.903L294.605 145.091L301.082 145.166H302.765C303.15 145.166 303.338 145.166 303.338 145.166H302.765H301.082H294.605H270.776L235.432 145.053L214.555 144.969H209.77C209.507 144.979 209.244 144.935 209 144.837C208.752 144.732 208.532 144.571 208.356 144.367C208.18 144.164 208.053 143.922 207.984 143.662C207.93 143.415 207.911 143.162 207.928 142.91V142.215C207.928 141.275 207.928 140.335 207.928 139.395C207.928 137.515 207.928 135.635 207.928 133.755C207.928 132.815 207.928 131.875 207.928 130.935C207.91 130.684 207.91 130.433 207.928 130.183C207.963 129.906 208.07 129.644 208.238 129.421C208.4 129.194 208.615 129.01 208.864 128.884C209.113 128.758 209.388 128.694 209.667 128.697L288.289 129.13L301.872 129.224H303.338C303.596 129.224 303.851 129.286 304.08 129.406C304.309 129.525 304.506 129.698 304.654 129.91C304.919 130.319 305.026 130.81 304.955 131.292C304.955 131.734 304.955 132.175 304.955 132.598C304.955 134.309 304.955 135.879 304.955 137.298C304.955 140.118 304.889 142.28 304.87 143.784C304.847 144.074 304.742 144.35 304.567 144.582C304.392 144.813 304.155 144.99 303.883 145.091C303.705 145.201 303.5 145.26 303.291 145.26Z" fill="#E0E0E0"/>
<path d="M259.722 133.999H215.504V138.144H259.722V133.999Z" fill="#646FD4"/>
<path opacity="0.2" d="M259.722 133.999H215.504V138.144H259.722V133.999Z" fill="white"/>
<path d="M232.254 158.494L208.077 158.385L208.057 162.822L232.234 162.931L232.254 158.494Z" fill="#646FD4"/>
<path opacity="0.1" d="M232.254 158.494L208.077 158.385L208.057 162.822L232.234 162.931L232.254 158.494Z" fill="black"/>
<path d="M302.68 185.737C302.87 185.713 303.058 185.679 303.244 185.633C303.506 185.55 303.748 185.411 303.952 185.226C304.157 185.041 304.319 184.815 304.428 184.562C304.576 184.182 304.634 183.773 304.598 183.368C304.598 182.917 304.598 182.428 304.598 181.883C304.598 180.792 304.598 179.551 304.598 178.123V172.154C304.642 171.721 304.547 171.286 304.325 170.913C304.093 170.53 303.728 170.245 303.3 170.114C302.832 170.03 302.355 170.005 301.881 170.039H288.354L210.005 169.747C209.584 169.748 209.177 169.902 208.861 170.181C208.544 170.459 208.34 170.843 208.285 171.261C208.285 172.154 208.285 173.141 208.285 174.081C208.285 175.961 208.285 177.841 208.285 179.721C208.285 180.661 208.285 181.601 208.285 182.541C208.25 182.98 208.269 183.422 208.342 183.857C208.459 184.238 208.7 184.569 209.028 184.797C209.375 185.017 209.783 185.122 210.193 185.097H211.5H214.217L235.019 185.201L270.241 185.417L293.985 185.605L300.443 185.68H302.125H302.689H302.125H300.443H293.985H270.241L235 185.643L214.198 185.567H210.109C209.6 185.598 209.096 185.462 208.671 185.182C208.243 184.886 207.931 184.451 207.787 183.951C207.703 183.473 207.677 182.987 207.712 182.503C207.712 181.563 207.712 180.623 207.712 179.683C207.712 177.803 207.712 175.923 207.712 174.043C207.712 173.103 207.712 172.163 207.712 171.223C207.78 170.686 208.042 170.191 208.449 169.833C208.856 169.475 209.379 169.277 209.921 169.277L288.27 169.71L301.796 169.813C302.3 169.782 302.806 169.817 303.3 169.916C303.789 170.076 304.201 170.411 304.457 170.856C304.7 171.27 304.805 171.751 304.757 172.229C304.757 172.671 304.757 173.103 304.757 173.535C304.757 175.237 304.757 176.797 304.757 178.235C304.757 179.674 304.757 180.886 304.757 181.995C304.757 182.531 304.757 183.029 304.757 183.49C304.791 183.91 304.724 184.333 304.56 184.721C304.438 184.981 304.261 185.211 304.042 185.396C303.823 185.581 303.567 185.716 303.291 185.793C303.086 185.81 302.879 185.791 302.68 185.737Z" fill="#E0E0E0"/>
<path d="M232.072 200.727L207.895 200.618L207.875 205.054L232.052 205.164L232.072 200.727Z" fill="#646FD4"/>
<path opacity="0.1" d="M232.072 200.727L207.895 200.618L207.875 205.054L232.052 205.164L232.072 200.727Z" fill="black"/>
<path d="M302.492 227.952C302.682 227.93 302.87 227.895 303.056 227.849C303.317 227.766 303.558 227.628 303.762 227.445C303.966 227.262 304.129 227.037 304.24 226.786C304.388 226.407 304.446 225.998 304.41 225.593C304.41 225.132 304.41 224.653 304.41 224.098C304.41 223.017 304.41 221.767 304.41 220.338V214.369C304.454 213.937 304.359 213.502 304.137 213.128C303.9 212.752 303.537 212.472 303.112 212.339C302.645 212.252 302.168 212.223 301.693 212.254H288.166L209.817 211.963C209.396 211.964 208.989 212.118 208.673 212.396C208.356 212.674 208.152 213.058 208.097 213.476C208.097 214.416 208.097 215.356 208.097 216.296C208.097 218.176 208.097 220.056 208.097 221.936C208.097 222.876 208.097 223.816 208.097 224.756C208.062 225.192 208.081 225.631 208.154 226.063C208.266 226.446 208.509 226.779 208.84 227.003C209.185 227.228 209.594 227.334 210.005 227.303H214.094L234.897 227.416L270.118 227.632L293.863 227.82L300.321 227.896H302.003C302.379 227.896 302.567 227.896 302.567 227.896C302.567 227.896 302.379 227.896 302.003 227.896H300.321H293.863H270.118L234.897 227.792L214.094 227.708H210.005C209.496 227.742 208.991 227.606 208.567 227.322C208.139 227.026 207.827 226.591 207.684 226.091C207.599 225.613 207.574 225.127 207.608 224.643C207.608 223.703 207.608 222.763 207.608 221.823C207.608 219.943 207.608 218.063 207.608 216.183C207.608 215.243 207.608 214.303 207.608 213.316C207.675 212.78 207.935 212.286 208.34 211.927C208.745 211.569 209.267 211.371 209.808 211.37L288.157 211.803L301.684 211.906C302.187 211.875 302.693 211.91 303.188 212.01C303.676 212.169 304.088 212.504 304.344 212.95C304.587 213.364 304.692 213.844 304.645 214.322C304.645 214.764 304.645 215.206 304.645 215.629C304.645 217.33 304.645 218.89 304.645 220.329C304.645 221.767 304.645 222.979 304.645 224.089C304.645 224.624 304.645 225.123 304.645 225.583C304.681 226.004 304.613 226.427 304.447 226.815C304.325 227.074 304.149 227.304 303.93 227.489C303.711 227.674 303.454 227.809 303.178 227.886C302.958 227.962 302.723 227.984 302.492 227.952Z" fill="#E0E0E0"/>
<path d="M258.778 175.647L214.561 175.447L214.542 179.592L258.759 179.793L258.778 175.647Z" fill="#646FD4"/>
<path opacity="0.2" d="M258.778 175.647L214.561 175.447L214.542 179.592L258.759 179.793L258.778 175.647Z" fill="white"/>
<path d="M218.559 220.282C218.532 220.66 218.394 221.021 218.162 221.322C217.931 221.622 217.616 221.848 217.258 221.971C216.899 222.094 216.512 222.11 216.145 222.015C215.778 221.921 215.447 221.72 215.192 221.439C214.938 221.158 214.772 220.809 214.714 220.434C214.657 220.059 214.71 219.676 214.869 219.331C215.027 218.987 215.283 218.696 215.605 218.496C215.927 218.296 216.3 218.194 216.679 218.204C217.203 218.233 217.694 218.468 218.046 218.857C218.398 219.246 218.582 219.758 218.559 220.282Z" fill="#646FD4"/>
<path d="M224.547 220.31C224.566 220.575 224.529 220.841 224.441 221.091C224.352 221.342 224.213 221.571 224.032 221.765C223.85 221.96 223.631 222.115 223.388 222.221C223.144 222.326 222.881 222.381 222.615 222.381C222.35 222.381 222.087 222.326 221.843 222.221C221.6 222.115 221.381 221.96 221.199 221.765C221.018 221.571 220.879 221.342 220.79 221.091C220.702 220.841 220.665 220.575 220.684 220.31C220.665 220.045 220.702 219.779 220.79 219.529C220.879 219.278 221.018 219.049 221.199 218.854C221.381 218.66 221.6 218.505 221.843 218.399C222.087 218.293 222.35 218.239 222.615 218.239C222.881 218.239 223.144 218.293 223.388 218.399C223.631 218.505 223.85 218.66 224.032 218.854C224.213 219.049 224.352 219.278 224.441 219.529C224.529 219.779 224.566 220.045 224.547 220.31Z" fill="#646FD4"/>
<path d="M230.544 220.338C230.517 220.716 230.379 221.078 230.147 221.378C229.916 221.679 229.601 221.904 229.243 222.028C228.884 222.151 228.497 222.166 228.13 222.072C227.763 221.977 227.432 221.777 227.177 221.496C226.923 221.215 226.757 220.865 226.699 220.49C226.642 220.116 226.695 219.732 226.854 219.388C227.012 219.043 227.268 218.753 227.59 218.552C227.912 218.352 228.285 218.251 228.664 218.261C229.187 218.292 229.677 218.527 230.028 218.916C230.38 219.304 230.565 219.815 230.544 220.338Z" fill="#646FD4"/>
<path d="M236.532 220.366C236.504 220.744 236.366 221.106 236.135 221.406C235.904 221.707 235.589 221.932 235.231 222.056C234.872 222.179 234.485 222.194 234.118 222.1C233.751 222.005 233.42 221.805 233.165 221.524C232.911 221.243 232.745 220.893 232.687 220.518C232.629 220.144 232.683 219.76 232.842 219.416C233 219.071 233.256 218.781 233.578 218.581C233.9 218.38 234.273 218.279 234.652 218.289C235.175 218.32 235.665 218.555 236.016 218.944C236.368 219.332 236.553 219.843 236.532 220.366Z" fill="#646FD4"/>
<path d="M242.52 220.385C242.494 220.764 242.357 221.126 242.127 221.428C241.897 221.73 241.583 221.957 241.224 222.082C240.866 222.206 240.479 222.223 240.111 222.129C239.743 222.036 239.411 221.836 239.155 221.555C238.9 221.275 238.733 220.925 238.675 220.55C238.616 220.175 238.67 219.791 238.828 219.446C238.986 219.101 239.242 218.81 239.564 218.609C239.887 218.409 240.261 218.307 240.64 218.317C241.161 218.349 241.649 218.583 242.001 218.969C242.352 219.355 242.538 219.863 242.52 220.385Z" fill="#646FD4"/>
<path d="M248.517 220.413C248.491 220.79 248.356 221.151 248.128 221.452C247.9 221.753 247.589 221.98 247.233 222.107C246.877 222.233 246.492 222.252 246.125 222.163C245.759 222.073 245.426 221.878 245.169 221.602C244.911 221.325 244.74 220.98 244.676 220.608C244.613 220.236 244.659 219.853 244.811 219.507C244.962 219.161 245.211 218.867 245.527 218.66C245.843 218.454 246.213 218.344 246.59 218.345C247.12 218.365 247.62 218.593 247.981 218.981C248.342 219.369 248.535 219.884 248.517 220.413Z" fill="#646FD4"/>
<path d="M254.505 220.441C254.523 220.706 254.487 220.972 254.399 221.223C254.31 221.473 254.171 221.703 253.989 221.897C253.808 222.091 253.589 222.246 253.345 222.352C253.102 222.458 252.839 222.513 252.573 222.513C252.308 222.513 252.045 222.458 251.801 222.352C251.558 222.246 251.338 222.091 251.157 221.897C250.976 221.703 250.837 221.473 250.748 221.223C250.659 220.972 250.623 220.706 250.642 220.441C250.623 220.176 250.659 219.91 250.748 219.66C250.837 219.41 250.976 219.18 251.157 218.986C251.338 218.792 251.558 218.637 251.801 218.531C252.045 218.425 252.308 218.37 252.573 218.37C252.839 218.37 253.102 218.425 253.345 218.531C253.589 218.637 253.808 218.792 253.989 218.986C254.171 219.18 254.31 219.41 254.399 219.66C254.487 219.91 254.523 220.176 254.505 220.441Z" fill="#646FD4"/>
<path d="M260.493 220.47C260.467 220.846 260.332 221.207 260.104 221.508C259.875 221.809 259.564 222.037 259.208 222.163C258.853 222.289 258.468 222.309 258.101 222.219C257.734 222.129 257.402 221.934 257.144 221.658C256.887 221.382 256.716 221.036 256.652 220.664C256.588 220.292 256.635 219.909 256.786 219.563C256.937 219.217 257.186 218.923 257.502 218.716C257.818 218.51 258.188 218.401 258.566 218.402C259.095 218.421 259.595 218.65 259.956 219.037C260.318 219.425 260.51 219.94 260.493 220.47Z" fill="#646FD4"/>
<path d="M266.481 220.498C266.455 220.877 266.318 221.239 266.088 221.541C265.857 221.843 265.543 222.07 265.185 222.195C264.826 222.319 264.439 222.336 264.071 222.242C263.703 222.149 263.371 221.949 263.116 221.668C262.861 221.387 262.693 221.038 262.635 220.663C262.577 220.287 262.63 219.904 262.789 219.559C262.947 219.214 263.203 218.923 263.525 218.722C263.847 218.521 264.221 218.42 264.601 218.43C265.122 218.461 265.61 218.695 265.961 219.082C266.312 219.468 266.499 219.976 266.481 220.498Z" fill="#646FD4"/>
<g opacity="0.2">
<path d="M218.559 220.282C218.532 220.66 218.394 221.021 218.162 221.322C217.931 221.622 217.616 221.848 217.258 221.971C216.899 222.094 216.512 222.11 216.145 222.015C215.778 221.921 215.447 221.72 215.192 221.439C214.938 221.158 214.772 220.809 214.714 220.434C214.657 220.059 214.71 219.676 214.869 219.331C215.027 218.987 215.283 218.696 215.605 218.496C215.927 218.296 216.3 218.194 216.679 218.204C217.203 218.233 217.694 218.468 218.046 218.857C218.398 219.246 218.582 219.758 218.559 220.282Z" fill="white"/>
<path d="M224.547 220.31C224.566 220.575 224.529 220.841 224.441 221.091C224.352 221.342 224.213 221.571 224.032 221.765C223.85 221.96 223.631 222.115 223.388 222.221C223.144 222.326 222.881 222.381 222.615 222.381C222.35 222.381 222.087 222.326 221.843 222.221C221.6 222.115 221.381 221.96 221.199 221.765C221.018 221.571 220.879 221.342 220.79 221.091C220.702 220.841 220.665 220.575 220.684 220.31C220.665 220.045 220.702 219.779 220.79 219.529C220.879 219.278 221.018 219.049 221.199 218.854C221.381 218.66 221.6 218.505 221.843 218.399C222.087 218.293 222.35 218.239 222.615 218.239C222.881 218.239 223.144 218.293 223.388 218.399C223.631 218.505 223.85 218.66 224.032 218.854C224.213 219.049 224.352 219.278 224.441 219.529C224.529 219.779 224.566 220.045 224.547 220.31Z" fill="white"/>
<path d="M230.544 220.338C230.517 220.716 230.379 221.078 230.147 221.378C229.916 221.679 229.601 221.904 229.243 222.028C228.884 222.151 228.497 222.166 228.13 222.072C227.763 221.977 227.432 221.777 227.177 221.496C226.923 221.215 226.757 220.865 226.699 220.49C226.642 220.116 226.695 219.732 226.854 219.388C227.012 219.043 227.268 218.753 227.59 218.552C227.912 218.352 228.285 218.251 228.664 218.261C229.187 218.292 229.677 218.527 230.028 218.916C230.38 219.304 230.565 219.815 230.544 220.338Z" fill="white"/>
<path d="M236.532 220.366C236.504 220.744 236.366 221.106 236.135 221.406C235.904 221.707 235.589 221.933 235.231 222.056C234.872 222.179 234.485 222.194 234.118 222.1C233.751 222.005 233.42 221.805 233.165 221.524C232.911 221.243 232.745 220.893 232.687 220.519C232.629 220.144 232.683 219.76 232.842 219.416C233 219.071 233.256 218.781 233.578 218.581C233.9 218.38 234.273 218.279 234.652 218.289C235.175 218.32 235.665 218.556 236.016 218.944C236.368 219.332 236.553 219.843 236.532 220.366Z" fill="white"/>
<path d="M242.52 220.385C242.494 220.764 242.357 221.126 242.127 221.428C241.897 221.73 241.583 221.957 241.224 222.082C240.866 222.206 240.479 222.223 240.111 222.129C239.743 222.036 239.411 221.836 239.155 221.555C238.9 221.275 238.733 220.925 238.675 220.55C238.616 220.175 238.67 219.791 238.828 219.446C238.986 219.101 239.242 218.81 239.564 218.609C239.887 218.409 240.261 218.307 240.64 218.317C241.161 218.349 241.649 218.583 242.001 218.969C242.352 219.355 242.538 219.863 242.52 220.385Z" fill="white"/>
<path d="M248.517 220.413C248.492 220.79 248.356 221.151 248.128 221.452C247.9 221.753 247.589 221.98 247.233 222.107C246.877 222.233 246.492 222.252 246.125 222.163C245.759 222.073 245.426 221.878 245.169 221.602C244.911 221.326 244.74 220.98 244.677 220.608C244.613 220.236 244.66 219.853 244.811 219.507C244.962 219.161 245.211 218.867 245.527 218.66C245.843 218.454 246.213 218.344 246.59 218.345C247.12 218.365 247.62 218.594 247.981 218.981C248.342 219.369 248.535 219.884 248.517 220.413Z" fill="white"/>
<path d="M254.505 220.441C254.523 220.706 254.487 220.972 254.399 221.223C254.31 221.473 254.171 221.703 253.989 221.897C253.808 222.091 253.589 222.246 253.345 222.352C253.102 222.458 252.839 222.513 252.573 222.513C252.308 222.513 252.045 222.458 251.801 222.352C251.558 222.246 251.338 222.091 251.157 221.897C250.976 221.703 250.837 221.473 250.748 221.223C250.659 220.972 250.623 220.706 250.642 220.441C250.623 220.176 250.659 219.91 250.748 219.66C250.837 219.41 250.976 219.18 251.157 218.986C251.338 218.792 251.558 218.637 251.801 218.531C252.045 218.425 252.308 218.37 252.573 218.37C252.839 218.37 253.102 218.425 253.345 218.531C253.589 218.637 253.808 218.792 253.989 218.986C254.171 219.18 254.31 219.41 254.399 219.66C254.487 219.91 254.523 220.176 254.505 220.441Z" fill="white"/>
<path d="M260.493 220.47C260.467 220.846 260.332 221.207 260.104 221.508C259.876 221.809 259.564 222.037 259.209 222.163C258.853 222.289 258.468 222.309 258.101 222.219C257.734 222.129 257.402 221.934 257.144 221.658C256.887 221.382 256.716 221.036 256.652 220.664C256.589 220.292 256.635 219.909 256.786 219.563C256.937 219.217 257.186 218.923 257.502 218.717C257.819 218.51 258.188 218.401 258.566 218.402C259.095 218.421 259.595 218.65 259.957 219.038C260.318 219.425 260.511 219.94 260.493 220.47Z" fill="white"/>
<path d="M266.481 220.498C266.455 220.877 266.318 221.239 266.088 221.541C265.857 221.843 265.543 222.07 265.185 222.195C264.826 222.319 264.439 222.336 264.071 222.242C263.703 222.149 263.371 221.949 263.116 221.668C262.861 221.387 262.693 221.038 262.635 220.663C262.577 220.287 262.63 219.904 262.789 219.559C262.947 219.214 263.203 218.923 263.525 218.722C263.847 218.521 264.221 218.42 264.601 218.43C265.122 218.461 265.61 218.695 265.961 219.082C266.312 219.468 266.499 219.976 266.481 220.498Z" fill="white"/>
</g>
<path d="M257.974 84.7994C258.627 84.5119 259.181 84.0387 259.567 83.4386C259.953 82.8386 260.154 82.1383 260.145 81.4249C260.169 80.9611 260.099 80.4972 259.938 80.0614C259.778 79.6257 259.53 79.2273 259.21 78.8904C258.89 78.5535 258.505 78.2852 258.079 78.1019C257.652 77.9185 257.193 77.824 256.728 77.824C256.264 77.824 255.804 77.9185 255.377 78.1019C254.951 78.2852 254.566 78.5535 254.246 78.8904C253.926 79.2273 253.679 79.6257 253.518 80.0614C253.357 80.4972 253.287 80.9611 253.311 81.4249C253.297 82.1454 253.496 82.8541 253.885 83.4614C254.273 84.0687 254.832 84.5474 255.492 84.8371C250.228 85.6267 250.463 91.3419 250.463 91.3419L262.909 91.3983C262.909 91.3983 263.2 85.5796 257.974 84.7994Z" fill="#646FD4"/>
<path opacity="0.1" d="M257.974 84.7994C258.627 84.5119 259.181 84.0387 259.567 83.4386C259.953 82.8386 260.154 82.1383 260.145 81.4249C260.169 80.9611 260.099 80.4972 259.938 80.0614C259.778 79.6257 259.53 79.2273 259.21 78.8904C258.89 78.5535 258.505 78.2852 258.079 78.1019C257.652 77.9185 257.193 77.824 256.728 77.824C256.264 77.824 255.804 77.9185 255.377 78.1019C254.951 78.2852 254.566 78.5535 254.246 78.8904C253.926 79.2273 253.679 79.6257 253.518 80.0614C253.357 80.4972 253.287 80.9611 253.311 81.4249C253.297 82.1454 253.496 82.8541 253.885 83.4614C254.273 84.0687 254.832 84.5474 255.492 84.8371C250.228 85.6267 250.463 91.3419 250.463 91.3419L262.909 91.3983C262.909 91.3983 263.2 85.5796 257.974 84.7994Z" fill="black"/>
<path d="M278.197 95.0843L233.839 94.8831L233.815 100.185L278.173 100.386L278.197 95.0843Z" fill="#646FD4"/>
<path opacity="0.2" d="M278.197 95.0843L233.839 94.8831L233.815 100.185L278.173 100.386L278.197 95.0843Z" fill="white"/>
<path d="M170.478 388.57C170.478 388.701 165.083 388.814 158.437 388.814C151.791 388.814 146.396 388.701 146.396 388.57C146.396 388.438 151.791 388.325 158.437 388.325C165.083 388.325 170.478 388.438 170.478 388.57Z" fill="#263238"/>
<path d="M150.738 388.532C150.682 388.532 150.466 388.363 150.156 388.006C149.777 387.547 149.355 387.125 148.896 386.746C148.445 386.385 147.907 386.149 147.336 386.06C146.894 386.004 146.612 386.06 146.584 386.004C146.555 385.947 146.828 385.75 147.345 385.712C148.027 385.698 148.693 385.924 149.225 386.351C149.724 386.758 150.144 387.251 150.466 387.808C150.682 388.222 150.795 388.495 150.738 388.532Z" fill="#263238"/>
<path d="M205.963 388.589C205.963 388.72 200.577 388.833 193.922 388.833C187.267 388.833 181.89 388.72 181.89 388.589C181.89 388.457 187.276 388.344 193.922 388.344C200.568 388.344 205.963 388.457 205.963 388.589Z" fill="#263238"/>
<path d="M249.457 146.774C249.081 146.388 248.151 146.576 248.151 146.576C248.244 146.035 248.244 145.482 248.151 144.941C247.981 144.414 246.797 144.518 246.797 144.518C246.742 144.074 246.742 143.626 246.797 143.183C246.806 143.085 246.785 142.986 246.737 142.9C246.688 142.814 246.614 142.746 246.524 142.703C245.964 142.475 245.362 142.366 244.757 142.384C244.033 141.867 246.966 137.759 248.057 136.443C249.147 135.127 248.95 134.102 247.981 134.102C247.314 134.102 243.892 138.05 242.84 139.376C241.787 140.701 238.995 144.386 238.901 141.444C238.807 138.502 237.623 136.283 236.88 135.907C236.137 135.531 235.348 136.415 235.752 137.233C236.107 138.162 236.329 139.136 236.41 140.128C236.512 140.917 236.477 141.719 236.307 142.497C235.995 143.944 235.571 145.364 235.038 146.745L235.752 152.367C235.752 152.367 219.669 171.099 218.183 172.5C216.858 173.76 184.983 166.326 179.634 165.762C177.817 165.496 175.981 165.37 174.144 165.386C171.823 165.489 171.409 165.818 169.097 165.846C163.257 165.911 157.431 166.423 151.669 167.378C149.06 167.822 146.623 168.973 144.624 170.707C142.625 172.441 141.141 174.691 140.333 177.211C134.946 194.037 124.193 234.513 122.04 256.885C120.414 259.835 117.498 262.221 116.193 265.326C114.68 269.444 115.047 269.585 115.554 269.679C116.927 269.932 118.487 262.544 119.07 264.33C119.653 266.116 116.109 273.138 117.547 273.345C119.427 273.608 120.922 265.825 121.1 265.204C121.279 264.584 122.209 264.781 122.04 265.364C121.768 266.191 119.126 274.961 120.969 275.243C121.984 275.394 122.097 273.542 122.097 273.542C122.097 273.542 123.977 265.148 124.832 265.317C125.687 265.486 124.776 270.44 124.343 272.094C123.911 273.749 124.512 274.585 125.396 274.181C125.998 273.899 127.436 268.87 127.831 267.235C128.225 265.599 129.212 261.068 130.538 263.691C131.863 266.313 133.875 267.836 134.702 267.874C134.888 267.852 135.064 267.776 135.207 267.653C135.349 267.531 135.451 267.369 135.501 267.188C135.551 267.007 135.545 266.816 135.484 266.638C135.424 266.46 135.312 266.305 135.163 266.191C134.451 265.496 133.84 264.705 133.348 263.841C132.91 263.168 132.592 262.424 132.408 261.642C132.03 260.082 131.809 258.489 131.75 256.885L129 253C130.538 224.5 139.769 214.924 148.52 195.381L152.111 202.769L153.671 208.24L144.102 231.862L184.917 231.327L178.826 207.883L186.223 183.443C194.223 183.622 214.762 183.922 218.183 182.371C222.489 180.491 244.757 152.367 244.757 152.367C246.209 151.239 247.599 150.034 248.921 148.757C248.921 148.757 250.275 147.62 249.457 146.774Z" fill="#FFB573"/>
<path d="M143.275 206.426C144.459 202.384 151.772 192.5 151.772 192.5C151.772 192.5 152.562 206.67 151.772 208.635C151.046 210.317 150.188 211.939 149.206 213.485C142.307 223.985 143.209 229.24 143.209 229.24L184.898 227.971C184.992 222.143 181.542 208.588 180.828 206.426C180.113 204.264 182.492 197.186 182.492 197.186C182.492 197.186 187.192 192.401 187.022 189.938C186.933 187.726 186.455 186.167 186 184H202V170L174.332 163.449C173.063 167.031 161.586 165.273 161.586 165.273C149.197 165.686 148.426 167.961 143.275 171.966C138.124 175.97 132.5 202.5 132.5 202.5L143.275 206.426Z" fill="#646FD4"/>
<path d="M183.836 190.982C183.817 191.698 183.719 192.411 183.544 193.106C183.3 194.413 182.924 196.199 182.445 198.154C181.965 200.109 181.505 201.914 181.091 203.136C180.925 203.835 180.679 204.514 180.358 205.157C180.41 204.443 180.543 203.736 180.753 203.051C181.11 201.585 181.514 199.893 181.965 198.041C182.416 196.189 182.849 194.497 183.206 193.031C183.333 192.325 183.545 191.637 183.836 190.982Z" fill="#263238"/>
<path d="M174.088 164.502C174.191 162.406 174.408 160.037 174.408 160.037C174.408 160.037 179.596 159.464 179.907 154.106C180.217 148.748 179.907 136.387 179.907 136.387L170.507 131.574L160.073 139.78L161.68 166.57L171.249 167.181C171.981 167.201 172.69 166.931 173.222 166.428C173.755 165.926 174.066 165.233 174.088 164.502Z" fill="#FFB573"/>
<path d="M175.019 149.866C175.019 149.866 175.019 149.97 174.934 150.092C174.864 150.18 174.774 150.251 174.67 150.297C174.567 150.342 174.455 150.362 174.342 150.355C173.74 150.355 173.157 149.659 172.951 148.851C172.852 148.459 172.852 148.049 172.951 147.657C172.97 147.486 173.032 147.323 173.13 147.181C173.229 147.04 173.361 146.926 173.515 146.849C173.641 146.797 173.783 146.797 173.909 146.849C174.003 146.895 174.079 146.971 174.126 147.065C174.191 147.225 174.126 147.328 174.126 147.319C174.126 147.309 174.126 147.225 174.032 147.131C173.983 147.063 173.91 147.017 173.829 146.999C173.747 146.982 173.662 146.995 173.59 147.037C173.475 147.106 173.379 147.204 173.311 147.321C173.244 147.438 173.207 147.569 173.204 147.704C173.125 148.054 173.125 148.417 173.204 148.766C173.392 149.5 173.9 150.092 174.351 150.148C174.44 150.16 174.529 150.154 174.615 150.13C174.701 150.105 174.781 150.064 174.849 150.007C174.962 149.932 175 149.857 175.019 149.866Z" fill="#EB996E"/>
<path d="M183.5 135C187 131 179.5 127 177.397 129.13C173.759 128.096 169.83 127.645 166.277 128.951C162.723 130.258 158.456 132.551 158.456 136.471C156.36 136.302 155.156 138.135 154.329 140.41C153.8 141.796 153.484 143.253 153.389 144.734C153.126 149.866 151.688 156.954 148.36 160.714C146.48 162.81 143.876 164.258 142.805 166.871C141.865 169.136 142.354 171.825 141.479 174.118C140.699 176.139 138.979 177.577 137.719 179.335C136.436 181.329 135.681 183.617 135.525 185.983C135.369 188.349 135.816 190.716 136.826 192.862C137.844 194.952 139.276 196.814 141.036 198.333C142.796 199.852 144.846 200.997 147.063 201.698C151.454 203.034 156.136 203.079 160.552 201.829C163.866 201.037 166.958 199.504 169.595 197.346C172.293 195.142 174.146 192.074 174.84 188.66C175.507 184.825 174.436 180.924 173.637 177.107C171.136 165.047 171.851 164.417 175.009 153.222C175.084 153.025 175.122 152.818 175.178 152.62C175.235 152.423 175.263 152.329 175.301 152.179C175.39 151.736 173.994 151.391 173.998 150.939C173.537 151.111 174.48 151.042 173.998 150.939C173.517 150.836 173.075 150.597 172.725 150.252C172.374 149.883 172.129 149.426 172.017 148.93C171.904 148.433 171.928 147.916 172.086 147.432C172.308 146.902 172.638 146.425 173.056 146.032C173.474 145.638 173.969 145.337 174.511 145.147C175.554 144.715 176.673 144.489 177.698 144.01C179.869 142.976 178.475 140.247 179.5 138C180.342 136.443 182.625 136 183.5 135Z" fill="#263238"/>
<path d="M169.783 252.223C169.1 252.266 168.415 252.225 167.743 252.101C166.483 251.95 164.763 251.687 162.874 251.311C160.984 250.935 159.292 250.503 158.07 250.155C157.417 250.011 156.785 249.784 156.19 249.478C156.19 249.337 159.255 250.07 163.015 250.832C166.775 251.593 169.802 252.082 169.783 252.223Z" fill="#455A64"/>
<path d="M189.325 299.11C187.742 299.631 186.111 299.993 184.456 300.191C182.426 300.539 180.696 300.783 179.916 300.821V300.633C180.17 300.708 180.301 300.755 180.301 300.793C180.301 300.83 180.142 300.793 179.878 300.793H179.314L179.878 300.623C180.612 300.407 182.341 300.05 184.372 299.683C186 299.33 187.659 299.138 189.325 299.11Z" fill="#455A64"/>
<path d="M188.94 301.808C187.474 301.875 186.004 301.809 184.55 301.61C183.082 301.58 181.619 301.42 180.179 301.131C183.117 300.891 186.074 301.12 188.94 301.808Z" fill="#455A64"/>
<path opacity="0.2" d="M143.03 230.734C143.524 231.368 144.146 231.891 144.855 232.269C145.565 232.646 146.346 232.87 147.148 232.925C148.827 233.124 150.525 233.092 152.195 232.831C162.958 231.637 174.361 230.537 184.898 227.971C171.259 228.732 156.848 228.478 143.209 229.24L143.068 230.405" fill="black"/>
<g opacity="0.2">
<path d="M157.083 249.957L164.773 279.793L164.237 251.217L157.083 249.957Z" fill="black"/>
</g>
<path d="M163.589 158.743C167.631 157.967 166.009 152.609 162.978 150.929C159.946 149.248 147.455 150.494 149.159 154.995C150.863 159.495 158.183 159.812 163.589 158.743Z" fill="white"/>
<path d="M147.5 162L145 165C148.412 159.454 154.02 151.173 151.717 146.727C148.756 141.087 163.163 134 158.663 134C166.11 134 149.433 140.26 152.553 146.285C154.979 150.985 151.044 156.238 147.5 162Z" fill="#263238"/>
<path d="M174.811 153.277L174.049 151.914C174.017 151.858 174 151.795 174 151.731C174 151.667 174.017 151.603 174.049 151.548L174.811 150.194C174.843 150.135 174.891 150.086 174.949 150.052C175.006 150.018 175.072 150 175.14 150C175.207 150 175.273 150.018 175.33 150.052C175.388 150.086 175.436 150.135 175.468 150.194L176.23 151.548C176.262 151.603 176.279 151.667 176.279 151.731C176.279 151.795 176.262 151.858 176.23 151.914L175.468 153.277C175.436 153.336 175.388 153.385 175.33 153.419C175.273 153.453 175.207 153.471 175.14 153.471C175.072 153.471 175.006 153.453 174.949 153.419C174.891 153.385 174.843 153.336 174.811 153.277Z" fill="white"/>
<path d="M147.454 247.801C147.454 247.801 141.68 294.637 139.858 318.437C137.927 340.281 139.858 380.711 139.858 380.711L147.474 381C147.474 381 159.561 294.669 157.334 278.5C151.057 232.928 157.334 247.801 157.334 247.801H147.454Z" fill="#FFB573"/>
<path d="M174.454 254.801C174.454 254.801 168.68 301.637 166.858 325.437C164.927 347.281 166.858 387.711 166.858 387.711L174.474 388C174.474 388 186.561 300.169 184.334 284C178.057 238.428 184.334 254.801 184.334 254.801H174.454Z" fill="#FFB573"/>
<path d="M144.5 228.121C144.5 228.121 124.416 247.619 139 327.5C158.626 327.388 175.5 326.077 196 315.5C196 315.5 188.5 257.5 184.5 228.121C175.072 225.583 144.5 228.121 144.5 228.121Z" fill="#263238"/>
<path d="M148.375 380C149 381 149.584 380.287 148.509 380.05C151.084 380.764 148.55 380.018 146.875 380C144.375 382.5 143.875 379.5 138.875 380.597C138.875 382.6 135.593 389.63 141.741 388.794C149.375 388.794 149.073 388.972 151.507 388.972C153.942 388.972 160.5 387 152 382.866C152.501 385.955 152.662 384.483 152.522 384.363C156.885 384.813 150.181 382.029 150 382C147.706 381.737 150.539 380.805 148.375 380Z" fill="#263238"/>
<path d="M175.978 381.028C175 383 177.062 380.815 175.987 380.577C175.978 380.528 176.028 380.545 174.353 380.528C171.853 383.028 171.353 380.028 166.353 381.125C166.353 383.128 163.071 390.158 169.218 389.321C176.853 389.321 176.55 389.5 178.985 389.5C181.419 389.5 194.541 387.355 174.978 382.028C174.921 381.853 180.139 385.01 180 384.891C184.363 385.34 177.659 382.773 177.478 382.744C175.184 382.481 176.478 381.028 175.978 381.028Z" fill="#263238"/>
<path d="M162.156 157.523C165.247 156.93 164.007 152.833 161.689 151.548C159.37 150.263 149.819 151.215 151.122 154.657C152.424 158.098 158.023 158.341 162.156 157.523Z" fill="#646FD4"/>
<path opacity="0.2" d="M159 276L158 259.5L164 253L159 276Z" fill="black"/>
</svg>
